<!--
  ~ SPDX-FileCopyrightText: 2024 SAP SE or an SAP affiliate company and Greenhouse contributors
  ~ SPDX-License-Identifier: Apache-2.0
-->

<?xml version="1.0" encoding="UTF-8"?><svg id="Layer_2" xmlns="http://www.w3.org/2000/svg" viewBox="0 0 113.33 113.33"><defs><style>.cls-1{fill:#e6522c;}.cls-1,.cls-2{stroke-width:0px;}.cls-2{fill:#fff;}</style></defs><g id="Layer_1-2"><circle class="cls-1" cx="56.67" cy="56.67" r="56.67"/><path class="cls-2" d="M56.89,26.14c1.6,0,5.39,1.01,5.39,1.01,10.27,2.35,17.49,11.81,17.49,22.49v28.74l2.1,2.11,1.75,1.76H29.71l1.75-1.76,2.1-2.11v-28.74c0-10.68,7.23-20.14,17.49-22.49,0,0,4.06-1.01,5.39-1.01M56.67,9.82c-3.96,0-7,3.04-7,7.03v3.28c-13.29,3.05-23.32,15.22-23.32,29.51v25.76l-9.33,9.37v4.68h79.28v-4.68l-9.33-9.37v-25.76c0-14.29-10.03-26.47-23.32-29.51v-3.28c0-3.98-3.03-7.03-7-7.03h0ZM65.99,94.14h-18.65c0,5.15,4.2,9.37,9.33,9.37s9.33-4.22,9.33-9.37h0Z"/></g></svg>